<svg width="24" height="24" viewBox="0 0 24 24" fill="none" xmlns="http://www.w3.org/2000/svg">
<path d="M20.4853 3.51472C22.7357 5.76515 24 8.8174 24 12C24 15.1826 22.7357 18.2348 20.4853 20.4853C18.2349 22.7357 15.1826 24 12 24C8.81741 24 5.76517 22.7357 3.51473 20.4853L20.4853 3.51472Z" fill="black"/>
<path d="M3.51197 20.4825L3.51473 20.4853L4.5009 19.5L3.59084 18.2878C2.24146 16.4833 1.5 14.2799 1.5 12C1.5 9.21523 2.60625 6.54451 4.57538 4.57538C6.54451 2.60625 9.21523 1.5 12 1.5C14.2799 1.5 16.4833 2.24146 18.2878 3.59084L19.3581 4.6419L20.4853 3.51472C20.1288 3.15822 19.7522 2.82647 19.3581 2.52058C17.2645 0.895452 14.6784 2.34156e-07 12 0C8.8174 1.15228e-06 5.76515 1.26428 3.51472 3.51472C1.26428 5.76516 2.78232e-07 8.8174 0 12C-2.34156e-07 14.6784 0.895454 17.2646 2.52058 19.3581C2.82569 19.7512 3.15651 20.1268 3.51197 20.4825Z" fill="black"/>
</svg>
