<svg viewBox="0 0 148 40" fill="none" xmlns="http://www.w3.org/2000/svg">
<g opacity="0.3">
<path d="M50.8101 14.5H48.5841L44.3561 10.104V14.5H42.7041V4.69995H44.3561V8.88595L48.2621 4.69995H50.3901L45.9101 9.44595L50.8101 14.5Z" fill="black"/>
<path d="M57.6746 7.58395V14.5H56.1066V9.01195H53.7826L53.6146 11.084C53.5399 11.8866 53.4093 12.526 53.2226 13.002C53.0359 13.478 52.7653 13.8466 52.4106 14.108C52.0653 14.36 51.6079 14.542 51.0386 14.654L50.7726 13.282C51.0713 13.2073 51.3046 13.1 51.4726 12.96C51.6406 12.8106 51.7713 12.5773 51.8646 12.26C51.9579 11.9426 52.0326 11.4853 52.0886 10.888L52.3966 7.58395H57.6746Z" fill="black"/>
<path d="M64.5464 7.58395H65.8204V14.5H64.2524V11.728L64.2664 10.146L60.6124 14.5H59.2964V7.58395H60.8644V10.174L60.8504 11.924L64.5464 7.58395Z" fill="black"/>
<path d="M72.3943 7.58395H73.9623V14.5H72.3943V11.616H69.0063V14.5H67.4383V7.58395H69.0063V10.202H72.3943V7.58395Z" fill="black"/>
<path d="M80.8302 7.58395H82.1041V14.5H80.5361V11.728L80.5501 10.146L76.8961 14.5H75.5802V7.58395H77.1482V10.174L77.1341 11.924L80.8302 7.58395Z" fill="black"/>
<path d="M90.106 14.5H88.062L85.29 11.462V14.5H83.722V7.58395H85.29V10.468L87.768 7.58395H89.686L86.802 10.902L90.106 14.5Z" fill="black"/>
<path d="M97.2897 7.58395V14.5H95.8897L95.8757 13.576C95.605 13.912 95.2503 14.178 94.8117 14.374C94.373 14.5606 93.8877 14.654 93.3557 14.654C92.6837 14.654 92.0863 14.5046 91.5637 14.206C91.0503 13.898 90.649 13.4686 90.3597 12.918C90.0703 12.3673 89.9257 11.742 89.9257 11.042C89.9257 10.342 90.0703 9.71662 90.3597 9.16595C90.649 8.61529 91.0503 8.19062 91.5637 7.89195C92.0863 7.58395 92.6837 7.42995 93.3557 7.42995C93.8877 7.42995 94.373 7.52795 94.8117 7.72395C95.2503 7.91062 95.605 8.17195 95.8757 8.50795L95.8897 7.58395H97.2897ZM93.6077 13.226C94.233 13.226 94.7417 13.0253 95.1337 12.624C95.5257 12.2133 95.7217 11.686 95.7217 11.042C95.7217 10.398 95.5257 9.87529 95.1337 9.47395C94.7417 9.06329 94.233 8.85795 93.6077 8.85795C92.9823 8.85795 92.4737 9.06329 92.0817 9.47395C91.6897 9.87529 91.4937 10.398 91.4937 11.042C91.4937 11.686 91.6897 12.2133 92.0817 12.624C92.4737 13.0253 92.9823 13.226 93.6077 13.226Z" fill="black"/>
</g>
<path d="M51.7497 20.5V22.66H44.8097V34.5H42.4697V20.5H51.7497Z" fill="#FF650E"/>
<path d="M60.2577 24.62V34.5H58.0177V26.66H54.6977L54.4577 29.62C54.351 30.7667 54.1644 31.68 53.8977 32.36C53.631 33.04 53.2444 33.5667 52.7377 33.94C52.2444 34.3 51.591 34.56 50.7777 34.72L50.3977 32.76C50.8244 32.6533 51.1577 32.5 51.3977 32.3C51.6377 32.0867 51.8244 31.7533 51.9577 31.3C52.091 30.8467 52.1977 30.1933 52.2777 29.34L52.7177 24.62H60.2577Z" fill="#FF650E"/>
<path d="M72.2546 24.62V34.5H70.2546L70.2346 33.18C69.8479 33.66 69.3412 34.04 68.7146 34.32C68.0879 34.5867 67.3946 34.72 66.6346 34.72C65.6746 34.72 64.8212 34.5067 64.0746 34.08C63.3412 33.64 62.7679 33.0267 62.3546 32.24C61.9412 31.4533 61.7346 30.56 61.7346 29.56C61.7346 28.56 61.9412 27.6667 62.3546 26.88C62.7679 26.0933 63.3412 25.4867 64.0746 25.06C64.8212 24.62 65.6746 24.4 66.6346 24.4C67.3946 24.4 68.0879 24.54 68.7146 24.82C69.3412 25.0867 69.8479 25.46 70.2346 25.94L70.2546 24.62H72.2546ZM66.9946 32.68C67.8879 32.68 68.6146 32.3933 69.1746 31.82C69.7346 31.2333 70.0146 30.48 70.0146 29.56C70.0146 28.64 69.7346 27.8933 69.1746 27.32C68.6146 26.7333 67.8879 26.44 66.9946 26.44C66.1012 26.44 65.3746 26.7333 64.8146 27.32C64.2546 27.8933 63.9746 28.64 63.9746 29.56C63.9746 30.48 64.2546 31.2333 64.8146 31.82C65.3746 32.3933 66.1012 32.68 66.9946 32.68Z" fill="#FF650E"/>
<path d="M80.4722 29.4C80.9522 29.6267 81.3322 29.9467 81.6122 30.36C81.8922 30.7733 82.0322 31.24 82.0322 31.76C82.0322 32.7067 81.6589 33.4533 80.9122 34C80.1789 34.5333 79.1589 34.8 77.8522 34.8C76.9722 34.8 76.1656 34.6867 75.4322 34.46C74.6989 34.22 74.0922 33.8733 73.6122 33.42L74.6122 31.86C75.0922 32.1933 75.5856 32.44 76.0922 32.6C76.5989 32.76 77.1589 32.84 77.7722 32.84C78.4256 32.84 78.9256 32.7267 79.2722 32.5C79.6322 32.2733 79.8122 31.9467 79.8122 31.52C79.8122 31.1467 79.6789 30.86 79.4122 30.66C79.1456 30.4467 78.7789 30.34 78.3122 30.34H76.1122V28.52H78.1522C78.5922 28.52 78.9322 28.4267 79.1722 28.24C79.4256 28.04 79.5522 27.7733 79.5522 27.44C79.5522 27.0667 79.3922 26.7733 79.0722 26.56C78.7656 26.3467 78.3322 26.24 77.7722 26.24C76.7589 26.24 75.8122 26.5533 74.9322 27.18L73.8922 25.72C74.4656 25.2667 75.0989 24.92 75.7922 24.68C76.4989 24.44 77.2256 24.32 77.9722 24.32C79.1322 24.32 80.0456 24.58 80.7122 25.1C81.3922 25.62 81.7322 26.3267 81.7322 27.22C81.7322 27.7 81.6189 28.14 81.3922 28.54C81.1656 28.9267 80.8589 29.2133 80.4722 29.4Z" fill="#FF650E"/>
<path d="M90.4035 24.62H92.8035L86.6035 39.06H84.1635L86.1635 34.44L82.2635 24.62H84.6635L86.3835 29.12L87.4035 31.96L88.5435 29.12L90.4035 24.62Z" fill="#FF650E"/>
<path d="M100.955 24.62H103.195V34.5H100.955V30.38H96.1154V34.5H93.8754V24.62H96.1154V28.36H100.955V24.62Z" fill="#FF650E"/>
<path d="M109.947 34.72C108.893 34.72 107.967 34.5 107.167 34.06C106.367 33.6067 105.747 32.9933 105.307 32.22C104.88 31.4333 104.667 30.5467 104.667 29.56C104.667 28.5733 104.88 27.6933 105.307 26.92C105.747 26.1333 106.367 25.52 107.167 25.08C107.967 24.6267 108.893 24.4 109.947 24.4C110.987 24.4 111.907 24.6267 112.707 25.08C113.507 25.52 114.12 26.1333 114.547 26.92C114.987 27.6933 115.207 28.5733 115.207 29.56C115.207 30.5467 114.987 31.4333 114.547 32.22C114.12 32.9933 113.507 33.6067 112.707 34.06C111.907 34.5 110.987 34.72 109.947 34.72ZM109.947 32.68C110.547 32.68 111.073 32.54 111.527 32.26C111.993 31.98 112.347 31.6067 112.587 31.14C112.84 30.66 112.967 30.1333 112.967 29.56C112.967 28.9867 112.84 28.4667 112.587 28C112.347 27.52 111.993 27.14 111.527 26.86C111.073 26.58 110.547 26.44 109.947 26.44C109.347 26.44 108.813 26.58 108.347 26.86C107.893 27.14 107.54 27.52 107.287 28C107.033 28.4667 106.907 28.9867 106.907 29.56C106.907 30.1333 107.033 30.66 107.287 31.14C107.54 31.6067 107.893 31.98 108.347 32.26C108.813 32.54 109.347 32.68 109.947 32.68Z" fill="#FF650E"/>
<path d="M124.059 29.46C124.486 29.6067 124.839 29.9 125.119 30.34C125.399 30.7667 125.539 31.2267 125.539 31.72C125.539 32.6267 125.246 33.32 124.659 33.8C124.086 34.2667 123.246 34.5 122.139 34.5H116.679V24.62H122.139C123.099 24.62 123.853 24.8533 124.399 25.32C124.959 25.7867 125.239 26.44 125.239 27.28C125.239 27.7867 125.133 28.2267 124.919 28.6C124.719 28.9733 124.433 29.26 124.059 29.46ZM123.039 27.5C123.039 27.18 122.926 26.92 122.699 26.72C122.473 26.52 122.166 26.42 121.779 26.42H118.799V28.58H121.779C122.179 28.58 122.486 28.48 122.699 28.28C122.926 28.08 123.039 27.82 123.039 27.5ZM121.899 32.7C122.393 32.7 122.753 32.5933 122.979 32.38C123.219 32.1667 123.339 31.88 123.339 31.52C123.339 31.1733 123.219 30.9 122.979 30.7C122.753 30.4867 122.393 30.38 121.899 30.38H118.799V32.7H121.899Z" fill="#FF650E"/>
<path d="M131.637 34.72C130.584 34.72 129.657 34.5 128.857 34.06C128.057 33.6067 127.437 32.9933 126.997 32.22C126.571 31.4333 126.357 30.5467 126.357 29.56C126.357 28.5733 126.571 27.6933 126.997 26.92C127.437 26.1333 128.057 25.52 128.857 25.08C129.657 24.6267 130.584 24.4 131.637 24.4C132.677 24.4 133.597 24.6267 134.397 25.08C135.197 25.52 135.811 26.1333 136.237 26.92C136.677 27.6933 136.897 28.5733 136.897 29.56C136.897 30.5467 136.677 31.4333 136.237 32.22C135.811 32.9933 135.197 33.6067 134.397 34.06C133.597 34.5 132.677 34.72 131.637 34.72ZM131.637 32.68C132.237 32.68 132.764 32.54 133.217 32.26C133.684 31.98 134.037 31.6067 134.277 31.14C134.531 30.66 134.657 30.1333 134.657 29.56C134.657 28.9867 134.531 28.4667 134.277 28C134.037 27.52 133.684 27.14 133.217 26.86C132.764 26.58 132.237 26.44 131.637 26.44C131.037 26.44 130.504 26.58 130.037 26.86C129.584 27.14 129.231 27.52 128.977 28C128.724 28.4667 128.597 28.9867 128.597 29.56C128.597 30.1333 128.724 30.66 128.977 31.14C129.231 31.6067 129.584 31.98 130.037 32.26C130.504 32.54 131.037 32.68 131.637 32.68Z" fill="#FF650E"/>
<path d="M143.03 23.56C141.417 23.56 140.417 22.66 140.03 20.86L141.53 20.36C141.717 21.3333 142.217 21.82 143.03 21.82C143.457 21.82 143.79 21.7 144.03 21.46C144.27 21.22 144.437 20.8533 144.53 20.36L146.03 20.86C145.67 22.66 144.67 23.56 143.03 23.56ZM145.87 24.62H147.69V34.5H145.45V30.54L145.47 28.28L140.25 34.5H138.37V24.62H140.61V28.32L140.59 30.82L145.87 24.62Z" fill="#FF650E"/>
<path d="M18.363 0.913351L16.4217 1.10646L14.847 0.861359C15.3 0.270877 16.0611 0.601398 16.6096 0.285732C17.189 0.501128 17.8515 0.482559 18.363 0.913351Z" fill="#FF650E"/>
<path d="M19.8575 0.0443461C20.0794 0.660824 20.9391 0.248601 21.1579 0.868793C20.48 1.36272 19.6819 1.01363 18.9577 1.19189C18.778 1.18596 18.5994 1.15733 18.4246 1.10647C17.7973 0.879211 17.1593 0.696919 16.5141 0.560554C16.2398 0.441715 15.7992 0.579122 15.7869 0.0666285L19.8575 0.0443461Z" fill="#FF650E"/>
<path d="M25.546 34.7899C25.7833 34.3889 25.7278 33.9321 25.7864 33.5013C25.9589 32.1829 26.0329 30.8385 27.5182 30.2035C27.9095 30.0364 28.0728 29.561 28.2269 29.1302C28.5574 28.1273 28.8001 27.0855 28.9511 26.0218C29.0959 25.19 29.025 24.3692 30.1251 24.0536C30.6336 23.9087 30.6736 23.1511 30.7414 22.6015C30.878 21.2358 31.1899 19.904 31.6659 18.6538C31.7667 18.4227 31.8304 18.1707 31.8539 17.9111C31.8754 17.5397 32.1127 17.0049 31.5919 16.8638C31.1698 16.7524 31.0465 17.2352 30.8924 17.5731C30.7451 17.9119 30.534 18.2044 30.2761 18.4273C30.2761 18.171 30.2761 17.9111 30.2761 17.6511C30.4027 14.2937 30.1403 10.9313 29.4965 7.66119C28.723 3.77663 26.4088 1.66352 22.6401 1.02476C22.1645 1.19419 21.6596 1.20446 21.1795 1.05447C20.7912 0.649678 19.9038 0.894789 19.8575 0.0443461C21.3326 -0.0861623 22.8155 0.0718511 24.2487 0.51227C27.2223 1.359 29.213 3.253 30.0543 6.30568C30.1898 6.79218 30.3624 7.27496 30.5011 7.75775C30.8585 10.2682 31.2468 12.7787 31.1852 15.33C31.1852 15.7311 31.2899 15.8908 31.7121 15.9539C32.4239 16.0616 32.7444 16.5704 32.7352 17.2909C32.7652 17.5839 32.7495 17.8812 32.6889 18.1673C32.0326 20.0242 31.7645 21.9367 31.3238 23.827C31.2949 23.9808 31.2404 24.1259 31.1636 24.2536C31.0868 24.3812 30.9893 24.4888 30.877 24.5698C29.8416 25.1046 29.8262 26.0998 29.6444 27.058C29.3116 28.7923 29.062 30.586 27.2223 31.4922C26.9481 31.6259 26.9142 31.9564 26.8556 32.2572C26.6191 33.5918 26.4676 34.9464 26.4027 36.3089C26.3718 37.4898 26.2886 38.6856 27.4997 39.4804C26.3934 39.7998 26.0791 39.6364 25.7494 38.6188C25.3395 37.3598 25.6415 36.06 25.5552 34.7788L25.546 34.7899Z" fill="#FF650E"/>
<path d="M14.0088 1.28844L14.4433 0.917068C14.5465 0.771723 14.6922 0.679935 14.8501 0.660821C15.3417 0.599695 15.8378 0.699778 16.2861 0.950491C16.3312 0.976504 16.371 1.01434 16.4024 1.06125C16.4339 1.10815 16.4562 1.16294 16.4679 1.22159C12.73 2.10175 10.8903 4.82391 9.90117 8.30738C9.0137 11.4343 9.00753 14.6207 9.48517 17.8257C9.52215 18.0782 9.54988 18.3307 9.58994 18.6575C9.05376 18.2862 8.95207 17.6957 8.63159 17.2649C8.48984 17.0792 8.35733 16.8935 8.10773 16.9901C8.02905 17.0207 7.96127 17.0825 7.9154 17.1654C7.86953 17.2484 7.84826 17.3475 7.85505 17.4469C7.81355 17.775 7.80733 18.1083 7.83656 18.4384C8.05534 19.8496 8.30187 21.2609 8.54839 22.6684C8.55873 22.8864 8.61697 23.0973 8.71713 23.2793C8.8173 23.4614 8.9558 23.6081 9.11847 23.7045C10.009 24.0759 10.0984 24.8817 10.274 25.6616C10.4959 26.6309 10.7116 27.6002 10.9581 28.5583C11.0475 28.9297 11.1184 29.3753 11.3649 29.561C12.8379 30.6751 12.9858 32.2832 13.0751 33.9284C13.0751 35.6552 13.0751 37.3747 12.3325 39.005C11.9442 39.8518 11.4573 40.1971 10.5082 39.8889C12.7177 37.4935 12.2863 34.6265 12.0028 31.7855C11.9956 31.7126 11.9763 31.6422 11.9461 31.5784C11.916 31.5147 11.8755 31.4588 11.8271 31.4142C10.0183 30.0735 9.94431 27.927 9.46976 25.9884C9.30336 25.3199 9.14004 24.7332 8.52065 24.347C8.34325 24.2423 8.18802 24.0902 8.0668 23.9023C7.94558 23.7144 7.86156 23.4955 7.82115 23.2625C7.55614 21.3426 6.8967 19.4783 7.01379 17.4988C7.04769 17.0012 7.09391 16.407 7.56538 16.2696C8.44978 16.0096 8.3635 15.3932 8.33884 14.7358C8.24024 11.8354 8.53914 8.99442 9.67314 6.30568C10.576 4.17029 11.861 2.33571 14.0088 1.28844Z" fill="#FF650E"/>
<path d="M14.1281 1.2244C13.8183 0.889726 13.4558 1.09797 13.1119 1.17234C9.29198 2.03134 7.42384 4.76081 6.43865 8.31581C5.50923 11.7109 5.53711 15.1543 6.16602 18.687C5.60837 18.449 5.58359 17.9024 5.29856 17.5714C5.12197 17.3558 5.05381 16.943 4.69754 17.0174C4.2669 17.1103 4.38773 17.5529 4.38773 17.8541C4.35707 18.2959 4.38109 18.7408 4.45898 19.1742C4.70278 20.2074 4.88601 21.2599 5.00734 22.3238C5.05691 22.8482 5.22111 23.4394 5.68272 23.6588C6.57497 24.0753 6.61214 24.8823 6.81352 25.6483C7.06446 26.6486 7.28443 27.6563 7.53847 28.6529C7.6407 29.0248 7.69027 29.5008 8.04036 29.7388C9.86202 30.9771 9.60488 32.9219 9.63276 34.7106C9.65445 36.198 9.55841 37.7412 8.87064 39.1357C8.56083 39.7716 8.14259 40.2513 7.26274 39.8571C9.16805 37.559 8.70954 34.8816 8.59181 32.2563C8.5915 32.0243 8.54181 31.7964 8.44747 31.594C8.35312 31.3916 8.21725 31.2214 8.05275 31.0998C7.12333 30.3932 6.75466 29.3706 6.46344 28.2773C6.0483 26.723 6.12575 24.9492 4.60459 23.8559C4.50518 23.7602 4.42291 23.6414 4.36275 23.5065C4.30259 23.3717 4.26577 23.2236 4.25451 23.0713C4.05004 21.212 3.39635 19.4159 3.51407 17.4934C3.54505 16.9467 3.58223 16.348 4.1089 16.1732C4.97326 15.8832 4.87413 15.2659 4.85554 14.6114C4.7564 11.3242 5.16535 8.13731 6.6834 5.16986C7.62304 3.39534 8.96261 1.97699 10.5467 1.07938C10.6444 0.934475 10.7657 0.814928 10.9031 0.727991C11.0405 0.641055 11.1912 0.588543 11.346 0.573643C12.3622 0.55505 13.3876 0.372838 14.3976 0.66289C14.7601 1.07194 14.5649 1.20581 14.1281 1.2244Z" fill="#FCC413"/>
<path d="M18.9021 0.87113L21.3155 0.804194C21.805 0.919472 22.3317 0.696354 22.8057 0.960376C22.8057 1.05334 22.7561 1.21696 22.7871 1.22812C25.6497 2.61888 26.5265 5.29257 27.1399 8.12987C27.5742 10.3238 27.8059 12.5685 27.8308 14.8234C27.8463 15.3998 27.8308 15.7902 28.5991 15.9836C29.5874 16.2365 29.6215 17.2516 29.3643 18.0177C28.7981 19.8315 28.3537 21.6967 28.0352 23.5956C28.019 23.8121 27.9577 24.0201 27.857 24.2008C27.7563 24.3814 27.6195 24.5288 27.459 24.6294C26.5296 25.0496 26.4769 25.8677 26.3344 26.7118C26.166 27.6231 25.9445 28.519 25.6714 29.3929C25.5938 29.7392 25.4529 30.0605 25.2589 30.3332C25.0649 30.6059 24.8227 30.8233 24.5499 30.9696C23.6205 31.4159 23.4315 32.2042 23.3572 33.1264C23.2302 35.1288 23.3958 37.1424 23.8467 39.0762C23.9179 39.3997 24.0976 39.727 23.5647 39.8199C23.1372 39.898 22.8522 39.8199 22.7716 39.3291C22.3379 36.767 22.152 34.2011 22.6818 31.6278C22.7151 31.4307 22.7894 31.2469 22.8977 31.0935C23.006 30.9401 23.1449 30.822 23.3014 30.7502C24.7203 30.1329 24.9805 28.8091 25.2718 27.5113C25.4112 26.9015 25.4546 26.273 25.5816 25.652C25.7086 25.031 25.5816 24.2352 26.6101 24.1051C27.047 24.0493 27.1709 23.4655 27.2298 23.0192C27.4505 21.326 27.8513 19.6739 28.4225 18.1032C28.4936 17.8645 28.5303 17.613 28.5309 17.3595C28.5439 17.2417 28.5191 17.1225 28.4616 17.0258C28.4041 16.9292 28.3181 16.8624 28.2211 16.8389C28.118 16.8144 28.011 16.8341 27.9187 16.8946C27.8264 16.9551 27.7548 17.0525 27.7161 17.1698C27.4845 17.677 27.216 18.1586 26.9137 18.6089C26.9137 16.5897 26.9137 14.5928 26.7991 12.5997C26.638 9.90365 26.291 7.22625 25.0766 4.79055C24.0047 2.58169 22.1644 1.46611 19.7448 1.30249C19.2801 1.55164 18.9765 1.44008 18.9021 0.87113Z" fill="#FCC413"/>
<path d="M15.8322 0.0748024L16.6765 0.294402C16.2887 1.12069 15.4007 0.432117 14.8879 0.886205L14.4783 0.942035L11.1327 0.915981C11.9144 0.286958 12.9806 0.543778 13.8029 0.0487482L15.8322 0.0748024Z" fill="#0EBC54"/>
<path d="M11.1327 0.915981L10.4072 1.16163C7.00527 1.53384 4.87593 3.57723 3.61583 6.58835C2.08683 10.2322 1.98677 14.0324 2.58086 17.8996C2.61838 18.1527 2.66216 18.4021 2.72782 18.8152C2.14623 18.35 2.01804 17.7582 1.68034 17.3264C1.54276 17.1477 1.41144 16.9542 1.14879 17.0547C0.945546 17.1217 0.945546 17.3301 0.945546 17.5125C0.911458 18.1342 0.936633 18.7585 1.02059 19.3735C1.24448 20.346 1.4168 21.3343 1.53651 22.3325C1.5517 22.7285 1.66656 23.1099 1.86618 23.4272C2.0658 23.7444 2.34095 23.9829 2.6559 24.1117C2.79366 24.1735 2.91426 24.2796 3.00426 24.4183C3.09426 24.557 3.15011 24.7227 3.16557 24.897C3.39383 25.9429 3.66273 26.9776 3.89411 28.0235C4.09118 29.1346 4.64123 30.112 5.42937 30.7518C5.56468 30.8299 5.68453 30.9412 5.78101 31.0785C5.87749 31.2158 5.9484 31.3759 5.98906 31.5483C6.28298 33.9415 6.42994 36.3311 5.69827 38.6797C5.59831 38.9582 5.4539 39.211 5.27303 39.4241C5.18613 39.5076 5.08049 39.5589 4.96929 39.5715C4.85809 39.584 4.74623 39.5574 4.64767 39.4948C4.38189 39.3571 4.49133 39.1226 4.58826 38.9328C5.6076 36.7182 5.40748 34.3994 5.15734 32.0805C5.15565 31.9677 5.13484 31.8565 5.09615 31.7536C5.05747 31.6506 5.0017 31.558 4.93221 31.4813C3.05613 30.0967 3.05613 27.9007 2.51832 25.9429C2.39951 25.5149 2.40889 25.031 1.99615 24.7705C1.58942 24.5208 1.24757 24.1439 1.00736 23.6802C0.767156 23.2165 0.637681 22.6837 0.632867 22.139C0.529682 20.7023 -0.0737887 19.3549 0.00750795 17.8661C0.0575366 17.0919 0.110692 16.3773 1.02059 16.113C1.60843 15.9493 1.3833 15.4579 1.37392 15.0969C1.29887 12.0783 1.58341 9.14166 2.75596 6.30548C4.64767 1.78693 8.21534 -0.0294165 12.9243 0.000359749C13.2182 0.000359749 13.5121 0.0264139 13.8029 0.03758C13.6184 0.677769 13.0369 0.580996 12.5803 0.655437C12.091 0.676275 11.6053 0.763693 11.1327 0.915981Z" fill="#0EBC54"/>
<path d="M18.8559 0.94576C18.9581 1.09385 19.0887 1.21043 19.2368 1.28559C19.3848 1.36075 19.5459 1.39229 19.7064 1.37751C22.5456 3.01521 23.4117 5.80673 23.9808 8.7583C24.3662 10.82 24.5633 12.9252 24.5686 15.0374C24.5686 15.5473 24.5874 15.886 25.2502 16.046C26.2539 16.2917 26.3946 17.2185 26.1382 18.0224C25.5703 19.8763 25.1085 21.774 24.7562 23.7022C24.7441 23.8989 24.6913 24.0889 24.6023 24.2552C24.5133 24.4215 24.3911 24.5589 24.2465 24.6551C23.2053 25.1538 23.2022 26.1439 23.0177 27.0558C22.6738 28.7903 22.4455 30.5992 20.5882 31.5222C20.2067 31.712 20.2067 32.1252 20.2005 32.4974C20.1692 35.0172 20.2567 37.5147 21.3761 39.8707C20.7007 40.1499 20.3193 39.9898 20.1567 39.264C19.672 37.0643 19.2468 34.8572 19.3093 32.5867C19.2909 32.1551 19.3899 31.728 19.5915 31.3686C19.7932 31.0092 20.0868 30.7368 20.4287 30.5917C21.2948 30.1525 21.6482 29.3337 21.8545 28.4553C22.0609 27.5769 22.2235 26.7208 22.3548 25.8499C22.4611 25.1054 22.4674 24.3871 23.4461 24.2047C23.8369 24.1303 23.9307 23.6613 23.9933 23.3077C24.3059 21.5658 24.5905 19.8202 25.244 18.1601C25.3135 17.9482 25.3444 17.7211 25.3347 17.4939C25.3347 17.2334 25.3347 16.9505 24.9907 16.8947C24.8842 16.8829 24.7774 16.9129 24.6865 16.9801C24.5956 17.0473 24.5257 17.148 24.4873 17.2669C24.2747 17.6949 24.0714 18.1266 23.8244 18.644C23.5336 18.2718 23.6743 17.8996 23.6868 17.5907C23.8718 14.222 23.593 10.84 22.8614 7.57841C21.9577 3.7745 19.9347 1.74972 16.5327 1.24724C16.5149 1.23358 16.5009 1.21387 16.4925 1.19066C16.4842 1.16744 16.4818 1.14178 16.4858 1.11697C17.0956 0.633109 17.7647 0.703828 18.4463 0.908539L18.8559 0.94576Z" fill="#0EBC54"/>
</svg>
