<svg width="24" height="24" viewBox="0 0 24 24" fill="none" xmlns="http://www.w3.org/2000/svg">
<path d="M18.3633 15.536L16.9493 14.12L18.3633 12.706C18.8309 12.2424 19.2024 11.6911 19.4564 11.0836C19.7103 10.4761 19.8418 9.8244 19.8433 9.16595C19.8447 8.5075 19.7161 7.85525 19.4648 7.24665C19.2134 6.63804 18.8444 6.08507 18.3788 5.61947C17.9132 5.15387 17.3602 4.78483 16.7516 4.53351C16.143 4.2822 15.4908 4.15357 14.8323 4.15502C14.1739 4.15646 13.5222 4.28794 12.9147 4.54192C12.3072 4.79589 11.7558 5.16736 11.2923 5.63499L9.87828 7.04999L8.46328 5.63599L9.87928 4.22199C11.1921 2.90917 12.9727 2.17163 14.8293 2.17163C16.6859 2.17163 18.4665 2.90917 19.7793 4.22199C21.0921 5.53481 21.8296 7.31538 21.8296 9.17199C21.8296 11.0286 21.0921 12.8092 19.7793 14.122L18.3643 15.536H18.3633ZM15.5353 18.364L14.1203 19.778C12.8075 21.0908 11.0269 21.8283 9.17028 21.8283C7.31367 21.8283 5.5331 21.0908 4.22028 19.778C2.90746 18.4652 2.16992 16.6846 2.16992 14.828C2.16992 12.9714 2.90746 11.1908 4.22028 9.87799L5.63528 8.46399L7.04928 9.87999L5.63528 11.294C5.16765 11.7575 4.79618 12.3089 4.54221 12.9164C4.28823 13.5239 4.15675 14.1756 4.15531 14.834C4.15387 15.4925 4.28249 16.1447 4.53381 16.7533C4.78512 17.3619 5.15417 17.9149 5.61976 18.3805C6.08536 18.8461 6.63833 19.2152 7.24694 19.4665C7.85554 19.7178 8.50779 19.8464 9.16624 19.845C9.82469 19.8435 10.4764 19.712 11.0839 19.4581C11.6914 19.2041 12.2427 18.8326 12.7063 18.365L14.1203 16.951L15.5353 18.365V18.364ZM14.8273 7.75699L16.2423 9.17199L9.17128 16.242L7.75628 14.828L14.8273 7.75799V7.75699Z" fill="white"/>
</svg>
