<svg width="176" height="176" viewBox="0 0 176 176" fill="none" xmlns="http://www.w3.org/2000/svg">
<circle cx="88" cy="88" r="88" fill="#00589F"/>
<path fill-rule="evenodd" clip-rule="evenodd" d="M80.522 63.2382C78.1803 62.4691 75.7109 62.0667 73.2 62.0667H61.4667C55.2429 62.0667 49.2741 64.539 44.8732 68.9399C40.4724 73.3407 38 79.3096 38 85.5333C38 91.7571 40.4724 97.7259 44.8732 102.127C49.2741 106.528 55.2429 109 61.4667 109L58.5333 119.267C58.952 119.099 59.3779 118.929 59.8102 118.757C68.7585 115.188 80.458 110.521 88.2506 103.244C80.9974 97.7049 75.0671 90.1117 75.0671 79.6669C75.0671 73.7112 77.0014 67.9551 80.522 63.2382Z" fill="#398ACC"/>
<path d="M102.534 56.2002H114.267C120.491 56.2002 126.46 58.6726 130.861 63.0734C135.261 67.4743 137.734 73.4431 137.734 79.6669C137.734 85.8906 135.261 91.8595 130.861 96.2603C126.46 100.661 120.491 103.134 114.267 103.134L117.2 113.4C102.534 107.534 79.0671 98.7335 79.0671 79.6669C79.0671 73.4431 81.5395 67.4743 85.9404 63.0734C90.3412 58.6726 96.3101 56.2002 102.534 56.2002Z" fill="white"/>
<circle id="questions-circle-1" opacity="0.15" cx="99.5" cy="79.5" r="2.5" fill="#00589F"/>
<circle id="questions-circle-2" opacity="0.15" cx="108.5" cy="79.5" r="2.5" fill="#00589F"/>
<circle id="questions-circle-3" opacity="0.15" cx="117.5" cy="79.5" r="2.5" fill="#00589F"/>
</svg>
