<svg width="24" height="24" viewBox="0 0 24 24" fill="none" xmlns="http://www.w3.org/2000/svg">
<path d="M19.001 15V8.5C19.001 7.30653 18.5269 6.16193 17.683 5.31802C16.839 4.47411 15.6945 4 14.501 4C13.3075 4 12.1629 4.47411 11.319 5.31802C10.4751 6.16193 10.001 7.30653 10.001 8.5V15.5C10.001 16.163 9.73758 16.7989 9.26874 17.2678C8.7999 17.7366 8.16402 18 7.50098 18C6.83794 18 6.20205 17.7366 5.73321 17.2678C5.26437 16.7989 5.00098 16.163 5.00098 15.5V8.83C5.66847 8.59409 6.23107 8.1298 6.58934 7.51919C6.9476 6.90858 7.07846 6.19098 6.95879 5.49321C6.83911 4.79545 6.47661 4.16246 5.93535 3.70613C5.39409 3.2498 4.70893 2.99951 4.00098 2.99951C3.29302 2.99951 2.60786 3.2498 2.0666 3.70613C1.52535 4.16246 1.16284 4.79545 1.04317 5.49321C0.92349 6.19098 1.05435 6.90858 1.41262 7.51919C1.77088 8.1298 2.33348 8.59409 3.00098 8.83V15.5C3.00098 16.6935 3.47508 17.8381 4.319 18.682C5.16291 19.5259 6.3075 20 7.50098 20C8.69445 20 9.83904 19.5259 10.683 18.682C11.5269 17.8381 12.001 16.6935 12.001 15.5V8.5C12.001 7.83696 12.2644 7.20107 12.7332 6.73223C13.2021 6.26339 13.8379 6 14.501 6C15.164 6 15.7999 6.26339 16.2687 6.73223C16.7376 7.20107 17.001 7.83696 17.001 8.5V15H14.001L18.001 20L22.001 15H19.001ZM4.00098 7C3.73576 7 3.48141 6.89464 3.29387 6.70711C3.10633 6.51957 3.00098 6.26522 3.00098 6C3.00098 5.73478 3.10633 5.48043 3.29387 5.29289C3.48141 5.10536 3.73576 5 4.00098 5C4.26619 5 4.52055 5.10536 4.70808 5.29289C4.89562 5.48043 5.00098 5.73478 5.00098 6C5.00098 6.26522 4.89562 6.51957 4.70808 6.70711C4.52055 6.89464 4.26619 7 4.00098 7Z" fill="#FF650E"/>
</svg>
