<svg width="48" height="48" viewBox="0 0 48 48" fill="none" xmlns="http://www.w3.org/2000/svg">
<circle cx="24" cy="24" r="24" fill="#FBF6F3"/>
<path d="M19.0653 27.411C18.3722 26.6747 18 25.849 18 24.5104C18 22.155 19.6535 20.0438 22.0581 19L22.6591 19.9274C20.4147 21.1414 19.9759 22.7169 19.8009 23.7102C20.1623 23.5231 20.6354 23.4579 21.0991 23.5009C22.3132 23.6133 23.2701 24.61 23.2701 25.849C23.2701 26.4737 23.022 27.0728 22.5803 27.5145C22.1385 27.9563 21.5394 28.2044 20.9147 28.2044C20.1926 28.2044 19.5021 27.8747 19.0653 27.411V27.411ZM25.7952 27.411C25.102 26.6747 24.7299 25.849 24.7299 24.5104C24.7299 22.155 26.3834 20.0438 28.788 19L29.3889 19.9274C27.1445 21.1414 26.7057 22.7169 26.5308 23.7102C26.8922 23.5231 27.3653 23.4579 27.8289 23.5009C29.043 23.6133 30 24.61 30 25.849C30 26.4737 29.7518 27.0728 29.3101 27.5145C28.8684 27.9563 28.2693 28.2044 27.6446 28.2044C26.9224 28.2044 26.232 27.8747 25.7952 27.411V27.411Z" fill="#FF650E"/>
</svg>
