<svg width="24" height="24" viewBox="0 0 24 24" fill="none" xmlns="http://www.w3.org/2000/svg">
<g clip-path="url(#clip0)">
<path d="M15.3011 18.36V16.358H10.5711V14.62H13.4311C15.4331 14.62 16.9731 14.092 18.0951 13.058C19.2171 12.002 19.7891 10.682 19.7891 9.12C19.7891 7.646 19.2831 6.37 18.2711 5.336C17.2811 4.302 15.7631 3.774 13.7611 3.774H7.86513V12.134H5.75313V14.62H7.86513V16.358H5.75313V18.36H7.86513V21H10.5711V18.36H15.3011ZM10.5711 6.282H13.5191C14.7951 6.282 15.6971 6.568 16.2251 7.14C16.7751 7.712 17.0391 8.394 17.0391 9.186C17.0391 10.77 15.9171 12.134 13.5191 12.134H10.5711V6.282Z" fill="white"/>
</g>
<defs>
<clipPath id="clip0">
<rect width="24" height="24" fill="white"/>
</clipPath>
</defs>
</svg>
