<svg width="16" height="10" viewBox="0 0 16 10" fill="none" xmlns="http://www.w3.org/2000/svg">
<path d="M15.9151 8.24422C15.8958 8.20247 15.8777 8.16783 15.8609 8.14008C15.5833 7.64012 15.0528 7.02645 14.2698 6.2989L14.2533 6.28224L14.245 6.27407L14.2366 6.26569H14.2282C13.8728 5.92691 13.6478 5.69911 13.5535 5.58249C13.3811 5.36033 13.3424 5.13546 13.4367 4.9076C13.5033 4.73545 13.7534 4.3719 14.1864 3.81644C14.4142 3.52206 14.5946 3.28613 14.7279 3.10838C15.6887 1.83096 16.1053 1.01468 15.9775 0.659207L15.9279 0.576137C15.8945 0.526126 15.8084 0.480375 15.6698 0.43865C15.5308 0.397013 15.3531 0.390128 15.1364 0.417876L12.7373 0.434449C12.6985 0.420677 12.643 0.421961 12.5707 0.43865C12.4984 0.45534 12.4623 0.463714 12.4623 0.463714L12.4206 0.484577L12.3874 0.50964C12.3596 0.526213 12.3291 0.555362 12.2957 0.597029C12.2626 0.638549 12.2348 0.687276 12.2126 0.742801C11.9514 1.4148 11.6545 2.03959 11.3212 2.61714C11.1157 2.96152 10.9269 3.25998 10.7546 3.51269C10.5825 3.76532 10.4381 3.95144 10.3215 4.07075C10.2048 4.19018 10.0995 4.28585 10.0049 4.35813C9.91044 4.43043 9.83834 4.46098 9.78842 4.4498C9.73838 4.43863 9.69125 4.42754 9.64664 4.41645C9.56894 4.36644 9.50644 4.29843 9.45932 4.21235C9.41199 4.12628 9.38013 4.01794 9.36347 3.88743C9.34689 3.75683 9.33709 3.64449 9.33429 3.55004C9.33169 3.45571 9.33289 3.32228 9.33852 3.15013C9.3443 2.97789 9.3469 2.86135 9.3469 2.80026C9.3469 2.58918 9.35101 2.36011 9.35927 2.11297C9.36767 1.86583 9.37447 1.67002 9.38016 1.52576C9.38582 1.38136 9.38844 1.22859 9.38844 1.06752C9.38844 0.906461 9.37864 0.780149 9.35927 0.688472C9.34013 0.596911 9.31074 0.508036 9.27202 0.421873C9.23307 0.335798 9.17606 0.269214 9.10125 0.221946C9.02629 0.174736 8.93309 0.137271 8.82219 0.109436C8.52781 0.0428222 8.15296 0.00678749 7.69747 0.00118532C6.66454 -0.0099023 6.00083 0.0567984 5.70648 0.2012C5.58985 0.262211 5.48432 0.345573 5.38996 0.451022C5.28996 0.573248 5.27602 0.639949 5.3482 0.65092C5.68147 0.700844 5.91741 0.820269 6.05626 1.00908L6.1063 1.10913C6.14523 1.18132 6.18409 1.30912 6.22299 1.49235C6.26182 1.67559 6.28689 1.87829 6.29792 2.10033C6.32563 2.50582 6.32563 2.85292 6.29792 3.14167C6.27011 3.43053 6.24385 3.6554 6.21878 3.81647C6.19372 3.97753 6.15626 4.10804 6.1063 4.20798C6.05626 4.30794 6.02297 4.36904 6.00628 4.39121C5.98962 4.41339 5.97573 4.42736 5.9647 4.43285C5.89252 4.46051 5.81744 4.4746 5.73974 4.4746C5.66192 4.4746 5.56756 4.43568 5.45651 4.35789C5.34549 4.2801 5.23026 4.17325 5.11084 4.03717C4.99141 3.90105 4.85673 3.71084 4.70673 3.46651C4.55684 3.22217 4.40132 2.9334 4.24026 2.60018L4.107 2.35853C4.0237 2.20307 3.9099 1.97671 3.7655 1.67965C3.62101 1.38247 3.4933 1.09501 3.38228 0.817322C3.3379 0.700697 3.27123 0.611909 3.18238 0.550811L3.14069 0.525747C3.11297 0.503571 3.06847 0.480025 3.00743 0.454932C2.9463 0.429868 2.88252 0.411894 2.81582 0.400836L0.533256 0.417409C0.300008 0.417409 0.141747 0.47025 0.0584143 0.575787L0.0250639 0.62571C0.00840325 0.653517 0 0.697926 0 0.759054C0 0.820152 0.0166606 0.89514 0.050011 0.983928C0.383223 1.76706 0.745584 2.52234 1.13709 3.24986C1.5286 3.97738 1.86882 4.56342 2.15753 5.00745C2.44631 5.4518 2.74066 5.87118 3.04058 6.26537C3.3405 6.65971 3.53902 6.91242 3.63616 7.02344C3.73341 7.13467 3.80979 7.21783 3.86532 7.27335L4.07362 7.47325C4.20691 7.60657 4.40263 7.76623 4.66089 7.95224C4.9192 8.13836 5.20517 8.3216 5.51895 8.50224C5.83279 8.68259 6.19789 8.82976 6.61447 8.94359C7.03098 9.05753 7.43638 9.10325 7.83072 9.08119H8.78875C8.98305 9.06441 9.13025 9.00331 9.2303 8.89787L9.26345 8.85611C9.28574 8.82297 9.3066 8.77147 9.32586 8.70217C9.34535 8.63275 9.35504 8.55628 9.35504 8.47309C9.34935 8.23433 9.36752 8.01914 9.40907 7.82756C9.45059 7.63604 9.49792 7.49163 9.55085 7.39438C9.60375 7.29722 9.66345 7.21523 9.72989 7.14876C9.79647 7.08215 9.84391 7.0418 9.87175 7.02791C9.89941 7.01393 9.9215 7.00445 9.93816 6.99876C10.0714 6.95435 10.2283 6.99736 10.409 7.12799C10.5895 7.2585 10.7588 7.41965 10.9172 7.61118C11.0755 7.80287 11.2657 8.01795 11.4878 8.25671C11.71 8.49556 11.9043 8.67311 12.0709 8.78991L12.2374 8.88987C12.3487 8.95657 12.4931 9.01767 12.6708 9.0732C12.8482 9.12869 13.0037 9.14258 13.1372 9.11483L15.2697 9.08157C15.4807 9.08157 15.6448 9.04664 15.7612 8.97735C15.8779 8.90793 15.9472 8.83146 15.9695 8.74827C15.9918 8.665 15.993 8.57052 15.9737 8.46489C15.954 8.35953 15.9345 8.28586 15.9151 8.24422Z" fill="black"/>
</svg>
