<svg width="24" height="24" viewBox="0 0 24 24" fill="none" xmlns="http://www.w3.org/2000/svg">
<path fill-rule="evenodd" clip-rule="evenodd" d="M20.3121 3.34498C20.0713 3.11364 19.8208 2.89225 19.5614 2.68148C17.4977 1.00485 14.8662 0 12 0C5.37258 0 0 5.37258 0 12C0 14.8662 1.00485 17.4977 2.68148 19.5614C2.89225 19.8208 3.11364 20.0713 3.34498 20.3121C3.45698 20.4287 3.5713 20.543 3.68789 20.655C3.8118 20.774 3.93826 20.8904 4.06719 21.0041C6.18201 22.8688 8.95889 24 12 24C18.6274 24 24 18.6274 24 12C24 8.95889 22.8688 6.18201 21.0041 4.06719C20.8904 3.93826 20.774 3.8118 20.655 3.68789C20.543 3.5713 20.4287 3.45698 20.3121 3.34498ZM18.1381 4.10473C16.4431 2.78447 14.3147 2 12 2C6.47715 2 2 6.47715 2 12C2 14.3147 2.78447 16.4431 4.10473 18.1381L18.1381 4.10473ZM5.48472 19.5866L19.5866 5.48472C21.0925 7.23604 22 9.51072 22 12C22 17.5228 17.5228 22 12 22C9.51073 22 7.23604 21.0925 5.48472 19.5866Z" fill="#151514"/>
</svg>
