<svg width="24" height="24" viewBox="0 0 24 24" fill="none" xmlns="http://www.w3.org/2000/svg">
<path d="M3.51472 20.4853C1.26428 18.2349 8.59954e-07 15.1826 0 12C-8.59954e-07 8.81741 1.26428 5.76516 3.51472 3.51472C5.76515 1.26429 8.8174 2.61782e-06 12 0C15.1826 -2.61781e-06 18.2348 1.26428 20.4853 3.51471L3.51472 20.4853Z" fill="#9DD1FF"/>
<path d="M20.4862 3.51465C22.7366 5.76509 24.0009 8.81733 24.0009 11.9999C24.0009 15.1825 22.7366 18.2348 20.4862 20.4852C18.2358 22.7357 15.1835 23.9999 12.0009 23.9999C8.81831 23.9999 5.76606 22.7357 3.51562 20.4852L20.4862 3.51465Z" fill="#063462"/>
</svg>
