<svg width="24" height="24" viewBox="0 0 24 24" fill="none" xmlns="http://www.w3.org/2000/svg">
<path d="M3.51472 20.4853C1.26428 18.2348 8.59954e-07 15.1826 0 12C-8.59954e-07 8.81741 1.26428 5.76516 3.51471 3.51472C5.76515 1.26429 8.81739 2.61782e-06 12 0C15.1826 -2.61781e-06 18.2348 1.26428 20.4853 3.51471L3.51472 20.4853Z" fill="black"/>
<path d="M20.488 3.51747L20.4853 3.51471L19.4991 4.50001L20.4092 5.71216C21.7585 7.51673 22.5 9.72014 22.5 12C22.5 14.7848 21.3938 17.4555 19.4246 19.4246C17.4555 21.3938 14.7848 22.5 12 22.5C9.72015 22.5 7.51674 21.7585 5.71216 20.4092L4.6419 19.3581L3.51472 20.4853C3.87121 20.8418 4.24783 21.1735 4.6419 21.4794C6.73545 23.1045 9.32157 24 12 24C15.1826 24 18.2348 22.7357 20.4853 20.4853C22.7357 18.2348 24 15.1826 24 12C24 9.32156 23.1045 6.73545 21.4794 4.6419C21.1743 4.24884 20.8435 3.87315 20.488 3.51747Z" fill="black"/>
</svg>
