<svg width="20" height="18" viewBox="0 0 20 18" fill="none" xmlns="http://www.w3.org/2000/svg">
<path d="M1.37477 7.8479C6.74447 5.50894 10.3242 3.9668 12.1141 3.22178C17.2306 1.09433 18.2924 0.724837 18.9859 0.712463C19.1385 0.709873 19.478 0.74757 19.6996 0.926848C19.8838 1.07793 19.9356 1.28224 19.9615 1.42555C19.9845 1.56885 20.0162 1.89547 19.9903 2.15043C19.7141 5.06262 18.5141 12.1296 17.904 15.3914C17.6479 16.7716 17.1385 17.2343 16.6464 17.2795C15.5759 17.3779 14.7644 16.5727 13.7285 15.8938C12.1083 14.8311 11.1933 14.1698 9.61922 13.133C7.80054 11.9347 8.98035 11.2761 10.0163 10.1998C10.2868 9.91809 15.0004 5.63182 15.0896 5.24305C15.1011 5.19441 15.1127 5.01312 15.0033 4.91758C14.8968 4.82176 14.7385 4.85456 14.6234 4.88046C14.4593 4.91729 11.8723 6.62892 6.85369 10.0151C6.11989 10.5198 5.45517 10.7658 4.85662 10.7529C4.20051 10.7388 2.93443 10.3811 1.99343 10.0755C0.84237 9.70053 -0.0756469 9.50227 0.00492751 8.86544C0.0452147 8.53393 0.502835 8.19466 1.37477 7.8479V7.8479Z" fill="black"/>
</svg>
